<svg viewBox="0 0 38.0918 32.4824" xmlns="http://www.w3.org/2000/svg" xmlns:xlink="http://www.w3.org/1999/xlink" width="38.091797" height="32.482422" fill="none" customFrame="#000000">
	<path id="Union 1" d="M20.7603 30.319C20.7628 29.8944 20.8911 29.48 21.1289 29.1281C21.3667 28.7763 21.7034 28.5027 22.0964 28.342C22.4895 28.1812 22.9214 28.1405 23.3376 28.2249C23.7538 28.3093 24.1357 28.5152 24.4351 28.8163C24.7344 29.1175 24.9379 29.5006 25.0198 29.9173C25.1017 30.334 25.0584 30.7657 24.8953 31.1578C24.7322 31.5499 24.4567 31.8849 24.1034 32.1205C23.7501 32.3562 23.335 32.482 22.9103 32.482C22.3384 32.4801 21.7906 32.2513 21.3875 31.8456C20.9843 31.44 20.7587 30.8909 20.7603 30.319ZM13.6962 30.319C13.6988 29.8944 13.8271 29.48 14.0649 29.1281C14.3027 28.7763 14.6394 28.5027 15.0325 28.342C15.4256 28.1812 15.8574 28.1405 16.2736 28.2249C16.6898 28.3093 17.0717 28.5152 17.3711 28.8163C17.6705 29.1175 17.874 29.5006 17.9559 29.9173C18.0378 30.334 17.9944 30.7657 17.8313 31.1578C17.6682 31.5499 17.3926 31.8849 17.0394 32.1205C16.6861 32.3562 16.2709 32.482 15.8463 32.482C15.2744 32.4801 14.7266 32.2513 14.3234 31.8456C13.9202 31.44 13.6946 30.8909 13.6962 30.319ZM7.99023 26.124C7.62991 26.0819 7.29764 25.9089 7.05646 25.6379C6.81528 25.3669 6.68201 25.0168 6.68201 24.654C6.68201 24.2912 6.81528 23.9411 7.05646 23.6701C7.29764 23.3991 7.62991 23.2261 7.99023 23.184L27.7662 23.184L34.7133 6.67603L19.5883 6.69403C19.2286 6.653 18.8966 6.48103 18.6556 6.21094C18.4146 5.94085 18.2813 5.59149 18.2813 5.22949C18.2813 4.86749 18.4146 4.5182 18.6556 4.24811C18.8966 3.97802 19.2286 3.80605 19.5883 3.76501L36.7003 3.74701C36.9206 3.73294 37.1406 3.78074 37.3353 3.88501C37.6598 4.07826 37.9025 4.38338 38.0178 4.74304C38.133 5.1027 38.1129 5.49213 37.9612 5.83801L29.8163 25.192C29.7353 25.4557 29.5739 25.6874 29.3549 25.855C29.1358 26.0226 28.8699 26.1177 28.5942 26.127L7.99023 26.124ZM1.30823 26.124C0.9479 26.0819 0.61563 25.9089 0.374451 25.6379C0.133271 25.3669 0 25.0168 0 24.654C0 24.2912 0.133271 23.9411 0.374451 23.6701C0.61563 23.3991 0.9479 23.2261 1.30823 23.184L4.08423 23.184C4.44456 23.2261 4.77689 23.3991 5.01807 23.6701C5.25925 23.9411 5.39252 24.2912 5.39252 24.654C5.39252 25.0168 5.25925 25.3669 5.01807 25.6379C4.77689 25.9089 4.44456 26.0819 4.08423 26.124L1.30823 26.124ZM3.48425 19.124C3.12393 19.0819 2.79159 18.9089 2.55042 18.6379C2.30924 18.3669 2.17603 18.0168 2.17603 17.654C2.17603 17.2912 2.30924 16.9411 2.55042 16.6701C2.79159 16.3991 3.12393 16.2261 3.48425 16.184L25.7703 16.184C26.1306 16.2261 26.4629 16.3991 26.7041 16.6701C26.9453 16.9411 27.0785 17.2912 27.0785 17.654C27.0785 18.0168 26.9453 18.3669 26.7041 18.6379C26.4629 18.9089 26.1306 19.0819 25.7703 19.124L3.48425 19.124ZM25.1843 12.37C24.8239 12.3279 24.4916 12.1549 24.2504 11.8839C24.0092 11.6129 23.876 11.2628 23.876 10.9C23.876 10.5372 24.0092 10.1871 24.2504 9.91608C24.4916 9.64508 24.8239 9.47209 25.1843 9.42999L27.9603 9.42999C28.3206 9.47209 28.6529 9.64508 28.8941 9.91608C29.1353 10.1871 29.2685 10.5372 29.2685 10.9C29.2685 11.2628 29.1353 11.6129 28.8941 11.8839C28.6529 12.1549 28.3206 12.3279 27.9603 12.37L25.1843 12.37ZM6.96924 12.37C6.60891 12.3279 6.27664 12.1549 6.03546 11.8839C5.79428 11.6129 5.66101 11.2628 5.66101 10.9C5.66101 10.5372 5.79428 10.1871 6.03546 9.91608C6.27664 9.64508 6.60891 9.47209 6.96924 9.42999L8.71924 9.42999L6.89624 2.92999L2.41925 2.92999C2.0587 2.88997 1.72559 2.71842 1.48364 2.44812C1.24169 2.17782 1.10791 1.8278 1.10791 1.46503C1.10791 1.10226 1.24169 0.752231 1.48364 0.481934C1.72559 0.211636 2.0587 0.040027 2.41925 0L7.85724 0C8.14907 0.011363 8.42915 0.118193 8.65442 0.304077C8.87968 0.489961 9.03769 0.744619 9.10425 1.02899L11.4612 9.43402L21.2762 9.43402C21.6366 9.47612 21.9689 9.64911 22.2101 9.9201C22.4513 10.1911 22.5845 10.5412 22.5845 10.904C22.5845 11.2668 22.4513 11.6169 22.2101 11.8879C21.9689 12.1589 21.6366 12.3319 21.2762 12.374L6.96924 12.37Z" fill="rgb(118,167,19)" fill-rule="nonzero" />
</svg>
