<svg viewBox="0 0 65.0156 68.4541" xmlns="http://www.w3.org/2000/svg" xmlns:xlink="http://www.w3.org/1999/xlink" width="65.015625" height="68.454102" fill="none" customFrame="#000000">
	<path id="Path 72569" d="M44.2492 11.3321L37.8642 11.3321C37.9883 9.83037 37.7968 8.31929 37.3022 6.89592C36.8076 5.47255 36.0208 4.16836 34.9922 3.06711C34.0947 2.09967 33.0071 1.32792 31.7975 0.800163C30.5879 0.272404 29.2824 1.44329e-15 27.9627 1.11022e-16C26.6431 -1.11022e-16 25.3376 0.272404 24.128 0.800163C22.9184 1.32792 21.8308 2.09967 20.9332 3.06711L18.9522 5.15411L16.9702 3.06711C16.0727 2.09967 14.9851 1.32792 13.7755 0.800163C12.5659 0.272404 11.2604 1.44329e-15 9.94075 1.11022e-16C8.62106 -7.77156e-16 7.31557 0.272404 6.106 0.800163C4.89644 1.32792 3.80883 2.09967 2.91125 3.06711C1.024 5.0732 -0.0184329 7.72889 0.000246774 10.4831C-0.0182657 13.2375 1.02455 15.8932 2.91225 17.8991L7.71225 22.9681C6.11354 26.1579 5.28471 29.6781 5.29225 33.2461C5.29225 45.3291 14.6102 55.1601 26.0632 55.1601L29.1632 55.1601L42.7002 68.4541L42.7002 55.1601L44.2452 55.1601C55.6982 55.1601 65.0162 45.3291 65.0162 33.2461C65.0162 21.1631 55.7002 11.3321 44.2492 11.3321ZM5.60825 5.91111C6.16154 5.31482 6.83196 4.83915 7.57753 4.51387C8.32311 4.18858 9.1278 4.02069 9.94125 4.02069C10.7547 4.02069 11.5594 4.18858 12.305 4.51387C13.0505 4.83915 13.721 5.31482 14.2742 5.91111L18.9522 10.8461L23.6302 5.91111C24.1835 5.31482 24.854 4.83915 25.5995 4.51387C26.3451 4.18858 27.1498 4.02069 27.9632 4.02069C28.7767 4.02069 29.5814 4.18858 30.327 4.51387C31.0725 4.83915 31.743 5.31482 32.2962 5.91111C33.45 7.15384 34.0912 8.78687 34.0912 10.4826C34.0912 12.1783 33.45 13.8114 32.2962 15.0541L18.9522 29.1331L5.60825 15.0541C4.45623 13.8105 3.81622 12.1778 3.81622 10.4826C3.81622 8.78741 4.45623 7.15472 5.60825 5.91111ZM44.2492 51.1371L38.8912 51.1371L38.8912 59.2121L30.6672 51.1371L26.0672 51.1371C16.7162 51.1371 9.10925 43.1111 9.10925 33.2461C9.10605 30.7489 9.60281 28.2763 10.5702 25.9741L18.9562 34.8221L34.9962 17.8991C35.71 17.1436 36.3069 16.2859 36.7672 15.3541L44.2492 15.3541C53.6003 15.3541 61.2072 23.3801 61.2072 33.2451C61.2072 43.1101 53.6003 51.1371 44.2492 51.1371Z" fill="rgb(118,167,19)" fill-rule="nonzero" />
</svg>
