<svg viewBox="0 0 54.7793 61.126" xmlns="http://www.w3.org/2000/svg" xmlns:xlink="http://www.w3.org/1999/xlink" width="54.779297" height="61.125977" fill="none" customFrame="#000000">
	<path id="branch" d="M54.779 21.9308L54.779 20.9718C54.728 20.4514 54.4743 19.9719 54.0728 19.637C53.6713 19.3021 53.1541 19.1386 52.633 19.1818L51.485 19.1818C43.343 19.1818 36.719 24.7168 36.719 31.5218L36.719 31.7388L29.533 37.7467L29.533 18.9018C37.213 18.4727 43.304 13.1158 43.304 6.59075L43.304 5.62875C43.2532 5.10875 43.0001 4.62953 42.5992 4.29448C42.1983 3.95943 41.6818 3.79539 41.161 3.83775L40.013 3.83775C36.1992 3.79093 32.4901 5.08487 29.533 7.49375L29.533 1.79375C29.4431 1.29082 29.1791 0.835548 28.7873 0.507619C28.3955 0.179691 27.9009 -2.63678e-16 27.39 0C26.8791 8.46545e-16 26.3845 0.179691 25.9927 0.507619C25.6009 0.835548 25.3369 1.29082 25.247 1.79375L25.247 22.8378C22.2896 20.4287 18.5801 19.1347 14.766 19.1818L13.619 19.1818C13.0982 19.1394 12.5817 19.3034 12.1808 19.6385C11.7799 19.9735 11.5268 20.4527 11.476 20.9728L11.476 21.9318C11.476 28.4568 17.567 33.8138 25.247 34.2428L25.247 42.0698L25.247 49.2537L18.057 43.2448L18.057 43.0278C18.057 36.2278 11.433 30.6888 3.291 30.6888L2.14301 30.6888C1.62225 30.6464 1.10571 30.8104 0.704803 31.1455C0.303901 31.4805 0.0507639 31.9597 0 32.4798L0 33.4388C0 37.9028 2.851 41.8208 7.112 43.9878C2.851 46.1548 0 50.0728 0 54.5368L0 55.4958C0.0507639 56.0158 0.303901 56.495 0.704803 56.83C1.10571 57.1651 1.62225 57.3291 2.14301 57.2868L3.291 57.2868C10.197 57.2868 16.011 53.3038 17.616 47.9428L25.247 54.3198L25.247 59.3318C25.3369 59.8347 25.6009 60.29 25.9927 60.6179C26.3845 60.9458 26.8791 61.1255 27.39 61.1255C27.9009 61.1255 28.3955 60.9458 28.7873 60.6179C29.1791 60.29 29.4431 59.8347 29.533 59.3318L29.533 42.8118L37.164 36.4347C38.77 41.7957 44.583 45.7788 51.489 45.7788L52.633 45.7788C53.1538 45.8211 53.6703 45.6571 54.0712 45.322C54.4721 44.987 54.7252 44.5078 54.776 43.9878L54.776 43.0288C54.776 38.5648 51.925 34.6468 47.664 32.4798C51.933 30.3128 54.779 26.3958 54.779 21.9308ZM38.966 7.46275C38.473 11.5948 34.529 14.8908 29.584 15.3028C30.077 11.1708 34.021 7.87475 38.966 7.46275ZM15.813 22.8018C20.758 23.2138 24.702 26.5098 25.195 30.6418C20.25 30.2337 16.306 26.9377 15.813 22.8018ZM4.333 53.6618C4.826 49.5298 8.77 46.2337 13.715 45.8218C13.226 49.9538 9.282 53.2498 4.333 53.6618ZM4.333 34.3138C9.278 34.7257 13.222 38.0218 13.715 42.1538C8.774 41.7418 4.833 38.4458 4.333 34.3138ZM50.433 42.1538C45.488 41.7418 41.544 38.4458 41.051 34.3138C46.005 34.7257 49.949 38.0218 50.442 42.1538L50.433 42.1538ZM41.051 30.6458C41.544 26.5138 45.488 23.2178 50.433 22.8058C49.949 26.9378 46.005 30.2337 41.06 30.6458L41.051 30.6458Z" fill="rgb(118,167,19)" fill-rule="nonzero" />
</svg>
