<svg viewBox="0 0 24.9316 28.8467" xmlns="http://www.w3.org/2000/svg" xmlns:xlink="http://www.w3.org/1999/xlink" width="24.931641" height="28.846680" fill="none" customFrame="#000000">
	<path id="Path 72574" d="M18.511 13.928C19.9764 12.4209 20.7968 10.4021 20.798 8.3C20.7915 6.10676 19.9197 4.0047 18.3721 2.45057C16.8246 0.896438 14.7262 0.0157975 12.533 0C10.3274 0.0160116 8.21511 0.892506 6.64613 2.44281C5.07715 3.99311 4.17544 6.0947 4.13301 8.3C4.13515 9.35003 4.34494 10.3893 4.75031 11.3579C5.15567 12.3265 5.74863 13.2054 6.49501 13.944C4.54502 15.0037 2.91428 16.5661 1.77214 18.469C0.63 20.3718 0.018101 22.5458 0 24.765L0 26.806C0.00370171 27.3505 0.223367 27.8713 0.610733 28.254C0.998099 28.6366 1.5215 28.8499 2.06601 28.847L22.866 28.847C23.4105 28.8499 23.9339 28.6366 24.3213 28.254C24.7087 27.8713 24.9283 27.3505 24.932 26.806L24.932 24.765C24.9254 22.5502 24.3266 20.3774 23.1976 18.4719C22.0685 16.5664 20.4505 14.9976 18.511 13.928ZM12.532 4.086C13.6346 4.11205 14.6834 4.56749 15.4552 5.35532C16.2269 6.14315 16.6607 7.20114 16.664 8.304C16.6558 9.39275 16.2163 10.4338 15.4417 11.199C14.6671 11.9642 13.6208 12.3911 12.532 12.386C11.4289 12.3956 10.3655 11.9744 9.56807 11.2121C8.77064 10.4498 8.30207 9.40646 8.26201 8.304C8.29719 7.18752 8.75993 6.12723 9.55461 5.34222C10.3493 4.55722 11.4152 4.1075 12.532 4.086ZM4.132 24.769C4.17443 22.5637 5.07616 20.4621 6.64514 18.9118C8.21412 17.3615 10.3264 16.485 12.532 16.469C14.7279 16.4761 16.8313 17.354 18.3807 18.91C19.9302 20.466 20.7991 22.5731 20.797 24.769L4.132 24.769Z" fill="rgb(118,167,19)" fill-rule="nonzero" />
</svg>
