<svg viewBox="0 0 70.5352 37.5654" xmlns="http://www.w3.org/2000/svg" xmlns:xlink="http://www.w3.org/1999/xlink" width="70.535156" height="37.565430" fill="none" customFrame="#000000">
	<path id="Path 72573" d="M68.3264 2.26574C67.1054 1.25147 65.5443 0.739666 63.9598 0.834193C62.3753 0.92872 60.8861 1.6225 59.7944 2.77474L53.7214 9.21475C53.3197 7.96124 52.5295 6.86808 51.4652 6.09358C50.4009 5.31907 49.1177 4.90341 47.8014 4.90675L36.9624 4.90675C36.1404 4.90675 35.8624 4.59674 34.4364 3.50674C31.7784 1.23578 28.3951 -0.00821397 24.8991 4.08195e-05C21.4031 0.00829561 18.0256 1.26826 15.3784 3.55174L11.3944 7.01574C10.5205 6.55505 9.54976 6.30839 8.56195 6.29605C7.57415 6.2837 6.59753 6.50603 5.7124 6.94474L1.1434 9.20074C0.901089 9.31848 0.68462 9.48325 0.5066 9.68545C0.32858 9.88766 0.192567 10.1233 0.106481 10.3785C0.0203957 10.6338 -0.0140422 10.9037 0.00517273 11.1724C0.0243877 11.4411 0.0968716 11.7033 0.218404 11.9437L12.6184 36.4367C12.8681 36.9226 13.299 37.2906 13.8178 37.4615C14.3367 37.6323 14.9019 37.5922 15.3914 37.3497L19.9604 35.0928C21.0195 34.5755 21.9062 33.7629 22.5138 32.7529C23.1213 31.7429 23.4237 30.5787 23.3844 29.4007L47.8004 29.4007C50.0382 29.399 52.2456 28.8827 54.2519 27.8918C56.2583 26.9008 58.0099 25.4617 59.3714 23.6857L69.2904 10.6197C70.2431 9.3736 70.675 7.80635 70.4952 6.24809C70.3154 4.68982 69.5379 3.26215 68.3264 2.26574ZM18.1094 31.4437L15.3884 32.7877L4.8384 11.9437L7.5604 10.5997C8.04967 10.3568 8.61495 10.3164 9.13378 10.4873C9.65262 10.6582 10.0833 11.0266 10.3324 11.5127L19.0324 28.7048C19.1535 28.9448 19.2257 29.2066 19.2448 29.4748C19.2639 29.7431 19.2295 30.0124 19.1436 30.2673C19.0578 30.5221 18.9221 30.7573 18.7446 30.9593C18.567 31.1612 18.3511 31.3259 18.1094 31.4437ZM65.9844 8.17274L56.0654 21.2387C55.093 22.5073 53.8418 23.5353 52.4087 24.2431C50.9755 24.9509 49.3988 25.3196 47.8004 25.3207L21.9404 25.3207L14.1974 10.0207L18.1084 6.62074C20.0061 4.98467 22.4283 4.08467 24.9339 4.08467C27.4395 4.08467 29.8617 4.98467 31.7594 6.62074C34.0514 8.61374 35.4774 8.99075 36.9594 8.99075L47.8004 8.99075C48.3417 8.99075 48.8608 9.20578 49.2436 9.58854C49.6264 9.9713 49.8414 10.4904 49.8414 11.0317C49.8414 11.5731 49.6264 12.0922 49.2436 12.4749C48.8608 12.8577 48.3417 13.0727 47.8004 13.0727L37.2474 13.0727C36.9794 13.0727 36.714 13.1255 36.4663 13.2281C36.2187 13.3307 35.9937 13.481 35.8042 13.6705C35.6147 13.8601 35.4643 14.0851 35.3618 14.3327C35.2592 14.5803 35.2064 14.8457 35.2064 15.1137C35.2064 15.3818 35.2592 15.6472 35.3618 15.8948C35.4643 16.1424 35.6147 16.3674 35.8042 16.5569C35.9937 16.7465 36.2187 16.8968 36.4663 16.9994C36.714 17.102 36.9794 17.1547 37.2474 17.1547L49.1844 17.1547C50.0333 17.1547 50.8732 16.9817 51.6531 16.6465C52.4329 16.3112 53.1363 15.8207 53.7204 15.2047L62.8204 5.55874C63.1915 5.16713 63.6999 4.93458 64.2388 4.90997C64.7777 4.88535 65.3052 5.07058 65.7104 5.42674C66.0952 5.7641 66.3375 6.23499 66.3884 6.7442C66.4393 7.2534 66.2949 7.76294 65.9844 8.16975L65.9844 8.17274Z" fill="rgb(118,167,19)" fill-rule="nonzero" />
</svg>
