<svg viewBox="0 0 28.1016 26.5791" xmlns="http://www.w3.org/2000/svg" xmlns:xlink="http://www.w3.org/1999/xlink" width="28.101562" height="26.579102" fill="none" customFrame="#000000">
	<defs>
		<linearGradient id="paint_linear_0" x1="13.6360006" x2="13.6360006" y1="26.5786896" y2="8.5546875" gradientUnits="userSpaceOnUse">
			<stop stop-color="rgb(10,71,46)" offset="0" stop-opacity="1" />
			<stop stop-color="rgb(168,179,36)" offset="1" stop-opacity="1" />
		</linearGradient>
		<linearGradient id="paint_linear_1" x1="15.7333403" x2="15.7333403" y1="26.5790024" y2="0" gradientUnits="userSpaceOnUse">
			<stop stop-color="rgb(28,83,44)" offset="0" stop-opacity="1" />
			<stop stop-color="rgb(151,167,37)" offset="1" stop-opacity="1" />
		</linearGradient>
	</defs>
	<g id="herb">
		<path id="Path 61965" d="M4.8229 20.7953C4.30801 20.9763 3.75153 21.0032 3.22155 20.8729C2.69157 20.7425 2.21107 20.4605 1.83889 20.0613C1.73378 19.5558 1.80288 19.0296 2.03494 18.5684C2.267 18.1072 2.64836 17.7381 3.11691 17.5213C4.52682 17.107 6.02402 17.0921 7.44189 17.4783C7.47912 17.484 7.5145 17.4984 7.54513 17.5203C7.57577 17.5423 7.60082 17.5711 7.61825 17.6045C7.63568 17.6379 7.64498 17.6749 7.64544 17.7126C7.64591 17.7502 7.63751 17.7875 7.62091 17.8213C7.02085 19.0799 6.04262 20.1196 4.8229 20.7953Z" fill="rgb(10,71,46)" fill-rule="nonzero" />
		<path id="Path 61966" d="M7.44189 17.4773C6.02402 17.0911 4.52682 17.106 3.11691 17.5203C2.64836 17.7372 2.267 18.1062 2.03494 18.5675C1.80288 19.0287 1.73378 19.5548 1.83889 20.0603C1.84389 20.0703 1.85289 20.0813 1.85989 20.0913C3.68373 19.0631 5.62649 18.2618 7.64489 17.7053C7.64083 17.6503 7.61875 17.5981 7.58206 17.5569C7.54536 17.5157 7.49609 17.4877 7.44189 17.4773Z" fill="rgb(190,232,110)" fill-rule="nonzero" />
		<path id="Path 61973" d="M4.10194 15.0143C3.75684 15.1357 3.38383 15.1538 3.0286 15.0664C2.67338 14.979 2.35136 14.7899 2.10194 14.5223C2.03208 14.1838 2.07871 13.8317 2.23429 13.5231C2.38988 13.2144 2.64527 12.9675 2.95893 12.8223C3.86471 12.5493 4.82809 12.5303 5.74394 12.7673C5.7823 12.7727 5.81882 12.7871 5.85047 12.8094C5.88213 12.8318 5.90798 12.8613 5.92588 12.8957C5.94379 12.93 5.95323 12.9681 5.95341 13.0069C5.95359 13.0456 5.9445 13.0838 5.92692 13.1183C5.52785 13.9228 4.89064 14.5849 4.10194 15.0143Z" fill="rgb(190,232,110)" fill-rule="nonzero" />
		<path id="Path 61974" d="M5.74393 12.7644C4.82808 12.5273 3.8647 12.5464 2.95893 12.8194C2.64526 12.9646 2.3899 13.2115 2.23432 13.5201C2.07873 13.8288 2.03208 14.1809 2.10193 14.5194C2.12352 14.556 2.14974 14.5896 2.17993 14.6194C3.31864 13.8543 4.597 13.3211 5.94193 13.0504C5.94826 13.0186 5.94812 12.9858 5.94153 12.954C5.93494 12.9222 5.92201 12.8921 5.90354 12.8654C5.88506 12.8387 5.86144 12.8161 5.83402 12.7987C5.8066 12.7813 5.77595 12.7697 5.74393 12.7644Z" fill="rgb(190,232,110)" fill-rule="nonzero" />
		<path id="Path 61977" d="M3.67695 14.0028C3.70539 14.0029 3.73371 13.9989 3.76096 13.9908C3.85496 13.9628 3.95194 13.9358 4.05094 13.9128C4.0827 13.9069 4.11294 13.8946 4.13975 13.8766C4.16656 13.8586 4.18939 13.8353 4.20683 13.8081C4.22426 13.7809 4.23594 13.7504 4.24113 13.7186C4.24631 13.6867 4.24487 13.6541 4.23695 13.6228C4.21436 13.5593 4.16864 13.5067 4.10892 13.4756C4.04921 13.4444 3.97992 13.437 3.91496 13.4548C3.80595 13.4808 3.69794 13.5098 3.59394 13.5418C3.56263 13.5494 3.53325 13.5634 3.50764 13.583C3.48202 13.6025 3.46077 13.6272 3.44517 13.6554C3.42957 13.6836 3.41996 13.7147 3.417 13.7468C3.41404 13.7789 3.41778 13.8112 3.42796 13.8418C3.44834 13.8906 3.48303 13.9322 3.52747 13.9609C3.57192 13.9896 3.62404 14.0042 3.67695 14.0028Z" fill="rgb(0,0,0)" fill-rule="nonzero" />
		<g id="apple">
			<g id="Group 8215">
				<g id="Group 8214">
					<path id="Path 61978" d="M21.459 14.1197C20.2106 14.1246 18.9987 14.5411 18.011 15.3047C17.7224 13.8082 16.9236 12.4581 15.7509 11.4847C14.5782 10.5112 13.1041 9.97476 11.58 9.96669C11.0227 9.97637 10.4692 10.0601 9.934 10.2157L9.1 8.55469L8.285 10.2157C7.7498 10.0601 7.19628 9.97635 6.639 9.96669C4.8797 9.97485 3.19488 10.6778 1.95142 11.9223C0.707961 13.1669 0.00657519 14.8524 0 16.6117C-3.33067e-16 20.2727 3.716 26.5787 7.464 26.5787C8.02943 26.5791 8.58918 26.4658 9.11 26.2457C9.63083 26.4658 10.1906 26.579 10.756 26.5787C12.611 26.5787 14.622 25.0007 16.231 22.3467C16.6838 23.3555 17.4175 24.2125 18.3444 24.8155C19.2713 25.4184 20.3523 25.7417 21.458 25.7467C22.2215 25.7467 22.9775 25.5963 23.6829 25.3041C24.3883 25.0119 25.0292 24.5837 25.5691 24.0438C26.109 23.5039 26.5373 22.863 26.8294 22.1576C27.1216 21.4522 27.272 20.6962 27.272 19.9327C27.272 19.1692 27.1216 18.4132 26.8294 17.7078C26.5373 17.0024 26.109 16.3615 25.5691 15.8216C25.0292 15.2817 24.3883 14.8534 23.6829 14.5613C22.9775 14.2691 22.2215 14.1187 21.458 14.1187L21.459 14.1197Z" fill="url(#paint_linear_0)" fill-rule="nonzero" />
				</g>
			</g>
			<g id="Group 8217">
				<g id="Group 8216">
					<path id="Path 61979" d="M15.6974 0C14.2842 0.0058976 12.9023 0.416329 11.715 1.18276C10.5277 1.9492 9.58464 3.03959 8.99741 4.325C8.48067 3.51121 7.76736 2.84061 6.92325 2.37504C6.07914 1.90947 5.1314 1.66391 4.16741 1.661C3.95214 1.66847 3.74818 1.75924 3.59853 1.91418C3.44888 2.06911 3.36523 2.2761 3.36523 2.4915C3.36523 2.70691 3.44888 2.91389 3.59853 3.06882C3.74818 3.22376 3.95214 3.31453 4.16741 3.322C5.2635 3.32835 6.31234 3.76911 7.08392 4.54764C7.85551 5.32616 8.28687 6.3789 8.28341 7.475L8.28341 10.216C8.563 10.2826 8.83793 10.3674 9.10641 10.47C9.37491 10.3675 9.64983 10.2826 9.92941 10.216L9.92941 8.222C11.7431 8.01353 13.4168 7.14502 14.6313 5.78198C15.8459 4.41894 16.5165 2.65667 16.5154 0.830999C16.5167 0.612445 16.4314 0.402271 16.2781 0.246513C16.1248 0.0907557 15.916 0.00211272 15.6974 0ZM21.4604 13.289C20.146 13.2882 18.8608 13.6773 17.7676 14.4069C16.6743 15.1366 15.8219 16.1741 15.3184 17.3883C14.8148 18.6024 14.6827 19.9387 14.9386 21.2279C15.1946 22.5172 15.8271 23.7016 16.7563 24.6313C17.6854 25.561 18.8694 26.1943 20.1586 26.451C21.4477 26.7077 22.784 26.5764 23.9984 26.0736C25.2129 25.5707 26.2509 24.719 26.9812 23.6262C27.7116 22.5333 28.1014 21.2484 28.1014 19.934C28.1043 19.0608 27.9345 18.1957 27.6018 17.3883C27.2691 16.581 26.78 15.8474 26.1627 15.2299C25.5454 14.6123 24.812 14.1229 24.0049 13.7898C23.1977 13.4567 22.3336 13.2865 21.4604 13.289ZM23.9304 19.934C23.7657 19.9366 23.6038 19.8901 23.4656 19.8005C23.3273 19.7109 23.2187 19.5822 23.1538 19.4308C23.0888 19.2794 23.0703 19.1121 23.1006 18.9501C23.131 18.7881 23.2088 18.6389 23.3242 18.5212C23.4395 18.4036 23.5873 18.3229 23.7486 18.2894C23.91 18.256 24.0776 18.2712 24.2303 18.3332C24.3829 18.3953 24.5137 18.5013 24.6059 18.6378C24.6982 18.7743 24.7478 18.9352 24.7484 19.1C24.7503 19.3192 24.6651 19.5301 24.5115 19.6865C24.3579 19.8429 24.1496 19.9319 23.9304 19.934Z" fill="url(#paint_linear_1)" fill-rule="nonzero" />
				</g>
			</g>
		</g>
	</g>
</svg>
