<svg viewBox="0 0 65.4355 64.3838" xmlns="http://www.w3.org/2000/svg" xmlns:xlink="http://www.w3.org/1999/xlink" width="65.435547" height="64.383789" fill="none" customFrame="#000000">
	<path id="plant" d="M57.6146 44.3607C49.9929 41.5187 41.9471 39.9802 33.8146 39.8097C34.0126 37.3 33.9757 34.7774 33.7046 32.2747C36.2088 33.5479 39.0786 33.9079 41.8196 33.2927C46.6988 32.306 51.1317 29.7773 54.4643 26.0795C57.7969 22.3818 59.8528 17.7108 60.3286 12.7557C60.3588 12.3977 60.292 12.0382 60.1352 11.7149C59.9784 11.3917 59.7374 11.1166 59.4376 10.9187C55.5184 8.33558 50.9139 6.98858 46.2204 7.05205C41.5269 7.11552 36.9606 8.58654 33.1126 11.2747C30.5177 6.97323 26.6033 3.62467 21.9519 1.72734C17.3005 -0.169983 12.1607 -0.514643 7.29762 0.744661C6.94742 0.834256 6.62748 1.01569 6.37083 1.27024C6.11417 1.52478 5.9301 1.84321 5.83762 2.19266C2.06362 16.6187 13.5306 29.3737 22.6906 29.3737C24.7841 29.3671 26.839 28.8094 28.6486 27.7567C29.7457 31.6938 30.103 35.8002 29.7026 39.8677C22.2236 40.2342 14.8456 41.7496 7.82762 44.3607C-3.85438 48.6457 -2.30338 59.6207 11.4276 62.3097C25.4862 65.0755 39.949 65.0755 54.0076 62.3097C67.7076 59.6277 69.3176 48.6557 57.6076 44.3607L57.6146 44.3607ZM56.0976 13.6057C55.4696 17.4559 53.6862 21.0243 50.984 23.838C48.2818 26.6516 44.7883 28.5776 40.9666 29.3607C39.684 29.6674 38.3442 29.6404 37.075 29.2823C35.8059 28.9241 34.6496 28.2467 33.7166 27.3147C37.3423 22.9681 42.1896 19.8105 47.6306 18.2507C47.8857 18.1754 48.1233 18.0502 48.3295 17.8824C48.5358 17.7145 48.7066 17.5073 48.832 17.2728C48.9574 17.0383 49.035 16.7812 49.0602 16.5164C49.0853 16.2517 49.0576 15.9846 48.9786 15.7307C48.8097 15.2174 48.4457 14.7912 47.9653 14.5439C47.4849 14.2965 46.9265 14.248 46.4106 14.4087C41.9035 15.708 37.738 17.9847 34.2106 21.0767C34.8703 19.1863 35.0146 17.1543 34.6286 15.1897C37.6472 12.8253 41.3008 11.4124 45.1247 11.1305C48.9486 10.8486 52.77 11.7105 56.1026 13.6067L56.0976 13.6057ZM18.5126 24.1427C15.171 22.1624 12.5186 19.2032 10.9144 15.6657C9.31015 12.1282 8.83165 8.18314 9.54362 4.36466C13.3696 3.63495 17.3271 4.08686 20.89 5.66034C24.453 7.23382 27.4528 9.85436 29.4906 13.1737C30.204 14.2597 30.6249 15.5115 30.7125 16.808C30.8001 18.1044 30.5515 19.4015 29.9906 20.5737C27.9095 16.8119 24.6704 13.8219 20.7546 12.0477C20.2584 11.8328 19.6977 11.821 19.1929 12.0149C18.6881 12.2088 18.2794 12.5928 18.0546 13.0847C17.9476 13.3277 17.8901 13.5897 17.8855 13.8552C17.8808 14.1208 17.9291 14.3846 18.0275 14.6313C18.1259 14.878 18.2724 15.1026 18.4586 15.292C18.6447 15.4815 18.8667 15.6319 19.1116 15.7347C22.6801 17.4186 25.5316 20.3191 27.1546 23.9157C25.8989 24.806 24.4069 25.303 22.8681 25.3434C21.3294 25.3839 19.8133 24.9659 18.5126 24.1427ZM53.2126 58.3627C39.6839 61.024 25.7663 61.024 12.2376 58.3627C8.19662 57.5717 4.10662 55.4187 4.10662 52.8327C4.10662 51.0997 6.08462 49.2977 9.26762 48.1327C15.6569 45.7557 22.363 44.3384 29.1676 43.9267C28.987 44.948 28.7673 45.993 28.5086 47.0617C28.4476 47.3206 28.4385 47.5892 28.482 47.8517C28.5255 48.1141 28.6206 48.3654 28.7619 48.5909C28.9032 48.8163 29.0878 49.0115 29.3051 49.1651C29.5224 49.3187 29.7679 49.4277 30.0276 49.4857C30.553 49.6119 31.1069 49.5259 31.5692 49.2464C32.0316 48.967 32.3652 48.5165 32.4976 47.9927C32.839 46.5873 33.1196 45.1987 33.3396 43.8267C41.1426 43.9428 48.8677 45.3972 56.1786 48.1267C59.3626 49.2947 61.3396 51.0967 61.3396 52.8267C61.3396 55.4117 57.2486 57.5657 53.2086 58.3567L53.2126 58.3627Z" fill="rgb(118,167,19)" fill-rule="nonzero" />
</svg>
