<svg viewBox="0 0 30 30" xmlns="http://www.w3.org/2000/svg" xmlns:xlink="http://www.w3.org/1999/xlink" width="30.000000" height="30.000000" fill="none" customFrame="#000000">
	<g id="icon_set">
		<g id="heaart">
			<path id="Path 75110" d="M15 6.9989e-30C17.9667 -3.21965e-15 20.8668 0.879735 23.3336 2.52796C25.8003 4.17618 27.7229 6.51886 28.8582 9.25975C29.9935 12.0006 30.2906 15.0166 29.7118 17.9264C29.133 20.8361 27.7044 23.5088 25.6066 25.6066C23.5088 27.7044 20.8361 29.133 17.9264 29.7118C15.0166 30.2906 12.0006 29.9935 9.25975 28.8582C6.51886 27.7229 4.17618 25.8003 2.52796 23.3336C0.879735 20.8668 2.22045e-15 17.9667 0 15C-1.55431e-15 11.0218 1.58035 7.20644 4.3934 4.3934C7.20644 1.58035 11.0218 3.33067e-15 15 6.9989e-30Z" fill="rgb(255,255,255)" fill-rule="nonzero" />
		</g>
		<g id="users">
			<g id="Group 2206">
				<path id="Path 48135" d="M15.0912 14.0061C15.5525 14.0119 16.01 13.9229 16.4355 13.7445C16.8609 13.5661 17.2451 13.3021 17.5642 12.9691C18.2208 12.3014 18.5887 11.4025 18.5887 10.4661C18.5887 9.52967 18.2208 8.63077 17.5642 7.96307C17.2414 7.6346 16.8563 7.37368 16.4316 7.19559C16.0068 7.0175 15.5508 6.92578 15.0902 6.92578C14.6296 6.92578 14.1737 7.0175 13.7489 7.19559C13.3241 7.37368 12.9391 7.6346 12.6162 7.96307C11.9597 8.63077 11.5918 9.52967 11.5918 10.4661C11.5918 11.4025 11.9597 12.3014 12.6162 12.9691C12.9357 13.3023 13.3202 13.5663 13.746 13.7447C14.1718 13.9231 14.6296 14.0121 15.0912 14.0061ZM13.2192 8.57205C13.4635 8.32367 13.7548 8.12642 14.0761 7.99176C14.3974 7.8571 14.7423 7.78775 15.0907 7.78775C15.4391 7.78775 15.784 7.8571 16.1053 7.99176C16.4266 8.12642 16.7179 8.32367 16.9622 8.57205C17.4591 9.07707 17.7375 9.75714 17.7375 10.4656C17.7375 11.174 17.4591 11.8541 16.9622 12.3591C16.7181 12.6077 16.4268 12.8052 16.1055 12.94C15.7842 13.0748 15.4392 13.1442 15.0907 13.1442C14.7423 13.1442 14.3973 13.0748 14.076 12.94C13.7546 12.8052 13.4634 12.6077 13.2192 12.3591C12.7224 11.8541 12.444 11.174 12.444 10.4656C12.444 9.75714 12.7224 9.07707 13.2192 8.57205Z" fill="rgb(7,28,31)" fill-rule="nonzero" />
				<path id="Path 48136" d="M21.2135 18.2275C21.1905 17.9163 21.1511 17.6066 21.0955 17.2995C21.0406 16.9836 20.9651 16.6716 20.8695 16.3655C20.7734 16.063 20.6464 15.7711 20.4905 15.4945C20.3376 15.2167 20.1449 14.9627 19.9185 14.7405C19.6813 14.5144 19.402 14.3371 19.0965 14.2185C18.7625 14.0876 18.4063 14.022 18.0475 14.0255C17.8381 14.0484 17.6403 14.1333 17.4795 14.2695C17.3085 14.3825 17.1095 14.5125 16.8865 14.6565C16.6463 14.8014 16.389 14.916 16.1205 14.9975C15.5122 15.2016 14.8539 15.2016 14.2455 14.9975C13.9769 14.9163 13.7196 14.8017 13.4795 14.6565C13.2585 14.5135 13.0595 14.3845 12.8865 14.2695C12.7254 14.1333 12.5273 14.0483 12.3175 14.0255C11.9587 14.022 11.6026 14.0876 11.2685 14.2185C10.9632 14.3375 10.684 14.5148 10.4465 14.7405C10.2205 14.9627 10.0281 15.2167 9.87552 15.4945C9.71966 15.7711 9.59266 16.063 9.49653 16.3655C9.401 16.6716 9.32551 16.9836 9.27052 17.2995C9.21445 17.6068 9.17505 17.917 9.15252 18.2285C9.13352 18.5085 9.12353 18.8015 9.12353 19.0965C9.10836 19.4371 9.16427 19.7772 9.28772 20.095C9.41116 20.4128 9.59942 20.7014 9.84052 20.9425C10.088 21.172 10.3784 21.3503 10.6951 21.4672C11.0117 21.584 11.3483 21.6372 11.6855 21.6235L18.6795 21.6235C19.0169 21.6371 19.3537 21.584 19.6705 21.4671C19.9872 21.3503 20.2778 21.172 20.5255 20.9425C20.7665 20.7014 20.9547 20.4128 21.078 20.0949C21.2012 19.7771 21.2569 19.4371 21.2415 19.0965C21.2425 18.7995 21.2325 18.5075 21.2135 18.2275ZM19.9395 20.3185C19.7697 20.4724 19.5709 20.591 19.3547 20.6672C19.1385 20.7434 18.9093 20.7758 18.6805 20.7625L11.6855 20.7625C11.4568 20.7759 11.2278 20.7435 11.0118 20.6673C10.7958 20.591 10.5971 20.4725 10.4275 20.3185C10.2707 20.1579 10.1494 19.9662 10.0715 19.7556C9.99363 19.5451 9.96093 19.3205 9.97553 19.0965C9.97553 18.8205 9.98453 18.5485 10.0025 18.2885C10.0231 18.0079 10.0585 17.7285 10.1085 17.4515C10.1573 17.1731 10.2241 16.8982 10.3085 16.6285C10.3872 16.3826 10.4907 16.1454 10.6175 15.9205C10.7299 15.7155 10.8714 15.5279 11.0375 15.3635C11.1958 15.2144 11.3816 15.0975 11.5845 15.0195C11.7986 14.9363 12.0259 14.892 12.2555 14.8885C12.2855 14.9045 12.3385 14.9355 12.4235 14.9885C12.5995 15.1035 12.8005 15.2355 13.0235 15.3795C13.3245 15.5646 13.6478 15.7108 13.9855 15.8145C14.7643 16.075 15.6067 16.075 16.3855 15.8145C16.7233 15.7108 17.0465 15.5646 17.3475 15.3795C17.5755 15.2315 17.7715 15.1035 17.9475 14.9885C18.0335 14.9325 18.0865 14.9015 18.1165 14.8885C18.3462 14.892 18.5734 14.9364 18.7875 15.0195C18.9903 15.0974 19.1758 15.2142 19.3335 15.3635C19.5005 15.5279 19.6423 15.7159 19.7545 15.9215C19.8815 16.146 19.985 16.3829 20.0635 16.6285C20.1479 16.8982 20.2147 17.1731 20.2635 17.4515C20.3135 17.7285 20.3489 18.0079 20.3695 18.2885C20.3875 18.5485 20.3965 18.8205 20.3965 19.0965C20.4105 19.3209 20.377 19.5457 20.2982 19.7562C20.2195 19.9668 20.0973 20.1584 19.9395 20.3185Z" fill="rgb(7,28,31)" fill-rule="nonzero" />
			</g>
		</g>
	</g>
</svg>
